<?xml version="1.0" encoding="UTF-8" standalone="no"?>
<!DOCTYPE svg PUBLIC "-//W3C//DTD SVG 1.1//EN" "http://www.w3.org/Graphics/SVG/1.1/DTD/svg11.dtd">
<svg width="100%" height="100%" viewBox="0 0 512 512" version="1.1" xmlns="http://www.w3.org/2000/svg" xmlns:xlink="http://www.w3.org/1999/xlink" xml:space="preserve" xmlns:serif="http://www.serif.com/" style="fill-rule:evenodd;clip-rule:evenodd;stroke-linejoin:round;stroke-miterlimit:2;">
    <g transform="matrix(0.1,0,0,-0.1,0,512)">
        <path d="M368,4623C351,4604 350,4602 206,4337L109,4159L115,3635L142,3588C178,3528 242,3474 302,3452L350,3435L350,1000L196,1000C72,1000 38,997 26,985C6,965 -4,873 4,775C14,635 48,557 118,509L154,485L2524,482C4269,480 4909,482 4948,490C5047,511 5102,599 5115,757C5124,857 5114,965 5093,985C5082,997 5048,1000 4924,1000L4770,1000L4770,3435L4822,3454C4891,3478 4971,3558 4993,3624C5007,3665 5010,3715 5010,3917L5010,4160L4890,4382C4824,4504 4762,4612 4753,4622C4738,4639 4643,4640 2560,4640C499,4640 382,4639 368,4623ZM640,4540L640,4200L249,4200L278,4253C294,4281 335,4358 370,4423L433,4540L640,4540ZM1178,4368L1180,4200L750,4200L750,4540L963,4538L1175,4535L1178,4368ZM1708,4368L1710,4200L1280,4200L1280,4540L1493,4538L1705,4535L1708,4368ZM2240,4540L2240,4200L1810,4200L1810,4540L2240,4540ZM2778,4368L2780,4200L2340,4200L2340,4363C2340,4453 2343,4530 2347,4534C2351,4537 2449,4539 2564,4538L2775,4535L2778,4368ZM3308,4368L3310,4200L2880,4200L2880,4540L3093,4538L3305,4535L3308,4368ZM3840,4540L3840,4200L3410,4200L3410,4540L3840,4540ZM4370,4540L4370,4200L3940,4200L3940,4363C3940,4453 3943,4530 3947,4533C3950,4537 4047,4540 4162,4540L4370,4540ZM4692,4523C4700,4513 4731,4460 4760,4405C4789,4350 4826,4281 4842,4253L4871,4200L4480,4200L4480,4540L4578,4540C4660,4540 4680,4537 4692,4523ZM640,3883C640,3686 638,3673 617,3635C573,3557 457,3514 362,3539C311,3553 243,3612 223,3657C214,3681 210,3744 210,3890L210,4090L640,4090L640,3883ZM1178,3883C1175,3661 1171,3642 1118,3593C1082,3559 1010,3530 960,3530C910,3530 838,3559 802,3593C753,3638 750,3655 750,3880L750,4090L1182,4090L1178,3883ZM1710,3898C1710,3792 1705,3689 1700,3670C1689,3629 1642,3577 1598,3554C1581,3545 1541,3535 1510,3533C1436,3526 1357,3560 1314,3615L1285,3653L1282,3872L1279,4090L1710,4090L1710,3898ZM2240,3883C2240,3686 2238,3673 2217,3635C2204,3612 2174,3583 2146,3565C2103,3539 2087,3535 2026,3535C1949,3536 1911,3550 1864,3597C1815,3646 1810,3673 1810,3890L1810,4090L2240,4090L2240,3883ZM2780,3903C2780,3699 2773,3657 2733,3609C2699,3569 2617,3530 2565,3530C2469,3530 2373,3595 2351,3677C2345,3698 2340,3799 2340,3903L2340,4090L2780,4090L2780,3903ZM3310,3896C3310,3779 3306,3690 3299,3669C3270,3584 3165,3522 3069,3533C3017,3539 2954,3568 2929,3596C2884,3648 2880,3670 2880,3885L2880,4090L3310,4090L3310,3896ZM3840,3887C3840,3697 3839,3682 3818,3640C3802,3609 3780,3586 3746,3565C3703,3539 3687,3535 3626,3535C3567,3535 3547,3540 3508,3562C3483,3577 3451,3607 3438,3627C3416,3663 3415,3675 3412,3878L3409,4090L3840,4090L3840,3887ZM4370,3880C4370,3655 4367,3638 4318,3594C4207,3492 4030,3520 3959,3650C3949,3668 3944,3731 3942,3883L3938,4090L4370,4090L4370,3880ZM4910,3890C4910,3672 4907,3657 4851,3598C4787,3529 4674,3512 4583,3558C4540,3581 4519,3601 4496,3647C4483,3673 4480,3715 4480,3885L4480,4090L4910,4090L4910,3890ZM1268,3516C1322,3462 1384,3437 1475,3432C1574,3427 1645,3451 1714,3511L1760,3552L1806,3511C1875,3451 1946,3427 2045,3432C2136,3437 2196,3461 2254,3517L2289,3552L2338,3510C2404,3455 2473,3430 2560,3430C2647,3430 2716,3455 2781,3510L2830,3551L2866,3516C2923,3461 2982,3437 3075,3432C3174,3427 3245,3451 3314,3511L3360,3552L3404,3512C3526,3400 3739,3403 3857,3520L3890,3552L3936,3511C3997,3457 4072,3430 4160,3430C4233,3430 4316,3454 4351,3486C4370,3503 4370,3481 4370,2397L4370,1290L750,1290L750,2397C750,3481 750,3503 769,3486C804,3454 887,3430 960,3430C1048,3430 1124,3457 1182,3510C1206,3532 1227,3549 1230,3549C1233,3549 1250,3534 1268,3516ZM657,1208C672,1191 746,1190 2558,1190C4298,1190 4445,1191 4462,1207C4479,1222 4480,1271 4480,2361L4480,3499L4515,3478C4535,3467 4576,3450 4608,3440L4665,3422L4668,2211L4670,1000L3853,1000C2951,1000 3000,1004 3000,938C3000,902 2976,854 2951,840C2924,826 2196,826 2169,840C2145,854 2120,901 2120,936C2120,951 2113,972 2103,982C2088,999 2049,1000 1268,1000L450,1000L452,2211L455,3422L515,3441C548,3451 589,3468 605,3478L635,3497L638,2362C640,1323 641,1225 657,1208ZM2029,865C2046,817 2085,773 2131,749C2169,730 2188,729 2574,732L2978,735L3017,765C3038,782 3066,819 3080,847L3105,899L4056,900L5008,900L5014,865C5022,825 5004,676 4988,645C4982,634 4971,617 4962,608C4948,591 4821,590 2560,590C299,590 172,591 158,608C149,617 138,634 132,645C116,676 98,829 105,867L111,900L2016,900L2029,865Z" style="fill:white;fill-rule:nonzero;stroke:white;stroke-width:10px;"/>
        <path d="M1354,3235C1339,3212 1339,3208 1354,3185C1363,3171 1380,3160 1393,3160C1439,3159 1557,3129 1606,3105C1699,3059 1775,2965 1795,2870C1802,2834 1816,2801 1915,2575C1946,2504 1999,2382 2032,2305C2128,2082 2134,2072 2172,2068C2205,2065 2205,2064 2210,2003C2214,1956 2221,1936 2239,1916C2300,1851 2436,1865 2475,1940C2483,1956 2490,1992 2490,2020L2490,2070L2740,2070L2740,2009C2740,1952 2742,1945 2774,1915C2811,1880 2862,1865 2907,1876C2988,1895 3020,1936 3020,2020C3020,2069 3021,2070 3050,2070C3082,2070 3098,2088 3221,2270C3436,2587 3510,2782 3446,2857L3422,2885L1898,2895L1880,2947C1830,3089 1704,3196 1533,3239C1420,3268 1375,3267 1354,3235ZM2345,2785L2351,2529L2198,2532L2046,2535L1994,2650C1965,2713 1941,2771 1940,2778C1940,2788 1984,2790 2143,2788L2345,2785ZM2770,2790L2770,2530L2450,2530L2450,2790L2770,2790ZM3366,2758C3363,2740 3339,2681 3313,2628L3267,2530L2880,2530L2880,2790L3373,2790L3366,2758ZM2348,2298L2351,2170L2205,2170L2161,2268C2137,2321 2111,2380 2103,2398L2089,2431L2345,2425L2348,2298ZM2770,2430L2770,2170L2450,2170L2450,2430L2770,2430ZM3194,2418C3190,2411 3151,2352 3107,2288L3028,2170L2880,2170L2880,2430L3041,2430C3166,2430 3200,2427 3194,2418ZM2388,2028C2385,1986 2384,1985 2348,1982L2310,1979L2310,2070L2391,2070L2388,2028ZM2918,2028C2915,1986 2914,1985 2878,1982L2840,1979L2840,2070L2921,2070L2918,2028Z" style="fill:white;fill-rule:nonzero;stroke:white;stroke-width:10px;"/>
    </g>
</svg>
